<?xml version="1.0" encoding="utf-8"?>
<!-- Generator: Adobe Illustrator 19.0.0, SVG Export Plug-In . SVG Version: 6.00 Build 0)  -->
<svg version="1.1" id="Layer_1" xmlns="http://www.w3.org/2000/svg" xmlns:xlink="http://www.w3.org/1999/xlink" x="0px" y="0px"
	 viewBox="0 0 300 300" style="enable-background:new 0 0 300 300;" xml:space="preserve">
<style type="text/css">
	.st0{fill:#00C1DD;}
	.st1{fill:#708CB1;}
	.st2{fill:#FFFFFF;}
</style>
<g id="XMLID_1_">
	<g id="XMLID_105_">
		<g id="XMLID_48_">
			<g id="XMLID_60_">
				<g id="XMLID_100_">
					<g id="XMLID_101_">
						<path id="XMLID_102_" class="st0" d="M159.4,10.1c-7.6-4.6-17.8-7.1-29.6-7.1c-18,0-37.9,5.7-55.8,15.6l-0.1,0
							c0,0,0,0.1,0,0.1c-5.4,3-10.6,6.4-15.6,10.1c-29,22.1-37.1,48.2-30.2,62.2c-7.5,12.8-12.1,26-12.3,41.7
							c14.4-27.4,23-49.7,70-87.1c-13.4,2.9-36.6,16.5-52.2,37.2C32.2,70.7,41.7,51.2,63,35c2.7-2.1,5.5-4,8.4-5.8
							c-2.2,6.9-1.5,5.2-6.2,15c6.9-6.5,11.4-10.5,18.1-21.6c8.8-4.3,17.9-7.5,27-9.5c-1.5,5-4.4,13.4-8.2,20.1
							c0,0,9.8-2.1,17.9-1.6c-4.4,4.9-8.4,10.2-12.5,15.6c-5.5,7.4-11.3,15.1-18.6,22.2c-0.9,0.9-1.7,1.6-2.6,2.4
							c-11.3-1.1-18.7,3.1-25.7,10.6c5.5-2.6,12.9-4.7,17.5-3.4c-8.5,7-22,16.1-33,15.4c-2.1,3.2-2.2,3.3-4.5,7.1
							c17.9,4.5,40.4-13.7,53.6-26.6c7.8-7.5,13.7-15.4,19.4-23.1c11.8-15.7,21.9-29.3,44.5-34.5l9.2-2.1L159.4,10.1z M159.4,10.1"
							/>
					</g>
				</g>
				<g id="XMLID_94_">
					<g id="XMLID_95_">
						<path id="XMLID_96_" class="st0" d="M290.1,159.5c4.6-7.6,7.1-17.8,7.1-29.6c0-18-5.7-37.9-15.6-55.8l0-0.1c0,0-0.1,0-0.1,0
							c-3-5.4-6.4-10.6-10.1-15.6c-22.1-29-48.2-37.1-62.2-30.2c-12.8-7.5-26-12.1-41.7-12.3c27.4,14.4,49.7,23,87.1,70
							c-2.9-13.4-16.5-36.6-37.2-52.2c12.1-1.5,31.6,8.1,47.8,29.4c2.1,2.7,4,5.5,5.8,8.4c-6.9-2.2-5.2-1.5-15-6.2
							c6.5,6.9,10.5,11.4,21.6,18.1c4.3,8.8,7.5,17.9,9.5,27c-5-1.5-13.4-4.4-20.1-8.2c0,0,2.1,9.8,1.6,17.9
							c-4.9-4.4-10.2-8.4-15.6-12.5c-7.4-5.5-15.1-11.3-22.2-18.6c-0.9-0.9-1.6-1.7-2.4-2.6c1.1-11.3-3.1-18.7-10.6-25.7
							c2.6,5.5,4.7,12.9,3.4,17.5c-7-8.5-16.1-22-15.4-33c-3.2-2.1-3.3-2.2-7.1-4.5c-4.5,17.9,13.7,40.4,26.6,53.6
							c7.5,7.8,15.4,13.7,23.1,19.4c15.7,11.8,29.3,21.9,34.5,44.5l2.1,9.2L290.1,159.5z M290.1,159.5"/>
					</g>
				</g>
				<g id="XMLID_78_">
					<g id="XMLID_82_">
						<path id="XMLID_86_" class="st0" d="M141.3,290.2c7.6,4.6,17.8,7.1,29.6,7.1c18,0,37.9-5.7,55.8-15.6l0.1,0c0,0,0-0.1,0-0.1
							c5.4-3,10.6-6.4,15.6-10.1c29-22.1,37.1-48.2,30.2-62.2c7.5-12.8,12.1-26,12.3-41.7c-14.4,27.4-23,49.7-70,87.1
							c13.4-2.9,36.6-16.5,52.2-37.2c1.5,12.1-8.1,31.6-29.4,47.8c-2.7,2.1-5.5,4-8.4,5.8c2.2-6.9,1.5-5.2,6.2-15
							c-6.9,6.5-11.4,10.5-18.1,21.6c-8.8,4.3-17.9,7.5-27,9.5c1.5-5,4.4-13.4,8.2-20.1c0,0-9.8,2.1-17.9,1.6
							c4.4-4.9,8.4-10.2,12.5-15.6c5.5-7.4,11.3-15.1,18.6-22.2c0.9-0.9,1.7-1.6,2.6-2.4c11.3,1.1,18.7-3.1,25.7-10.6
							c-5.5,2.6-12.9,4.7-17.5,3.4c8.5-7,22-16.1,33-15.4c2.1-3.2,2.2-3.3,4.5-7.1c-17.9-4.5-40.4,13.7-53.6,26.6
							c-7.8,7.5-13.7,15.4-19.4,23.1c-11.8,15.7-21.9,29.3-44.5,34.5l-9.2,2.1L141.3,290.2z M141.3,290.2"/>
					</g>
				</g>
				<g id="XMLID_61_">
					<g id="XMLID_63_">
						<path id="XMLID_68_" class="st0" d="M10.6,140.8c-4.6,7.6-7.1,17.8-7.1,29.6c0,18,5.7,37.9,15.6,55.8l0,0.1c0,0,0.1,0,0.1,0
							c3,5.4,6.4,10.6,10.1,15.6c22.1,29,48.2,37.1,62.2,30.2c12.8,7.5,26,12.1,41.7,12.3c-27.4-14.4-49.7-23-87.1-70
							c2.9,13.4,16.5,36.6,37.2,52.2c-12.1,1.5-31.6-8.1-47.8-29.4c-2.1-2.7-4-5.5-5.8-8.4c6.9,2.2,5.2,1.5,15,6.2
							c-6.5-6.9-10.5-11.4-21.6-18.1c-4.3-8.8-7.5-17.9-9.5-27c5,1.5,13.4,4.4,20.1,8.2c0,0-2.1-9.8-1.6-17.9
							c4.9,4.4,10.2,8.4,15.6,12.5c7.4,5.5,15.1,11.3,22.2,18.6c0.9,0.9,1.6,1.7,2.4,2.6c-1.1,11.3,3.1,18.7,10.6,25.7
							c-2.6-5.5-4.7-12.9-3.4-17.5c7,8.5,16.1,22,15.4,33c3.2,2.1,3.3,2.2,7.1,4.5c4.5-17.9-13.7-40.4-26.6-53.6
							c-7.5-7.8-15.4-13.7-23.1-19.4c-15.7-11.8-29.3-21.9-34.5-44.5l-2.1-9.2L10.6,140.8z M10.6,140.8"/>
					</g>
				</g>
			</g>
			<path id="XMLID_59_" class="st1" d="M102.6,32.4l8.2-20.1l3.1-8.5c0,0,32.9-6.1,53.9,10.5c0,0-17.6,0.9-38.3,18
				C129.6,32.4,114.6,30,102.6,32.4z"/>
			<path id="XMLID_58_" class="st1" d="M266.6,100.1l21.1,9.1l8.9,3.5c0,0,5.5,33.8-12.9,54.8c0,0-0.4-18-18-39.7
				C265.8,127.7,268.8,112.5,266.6,100.1z"/>
			<path id="XMLID_57_" class="st1" d="M196.8,261.7l-8.6,24.1l-3.3,10.2c0,0-33,6.8-53.7-13.6c0,0,17.6-0.8,38.7-21.1
				C169.8,261.2,184.7,264.4,196.8,261.7z"/>
			<path id="XMLID_56_" class="st1" d="M37.9,201.8l-24.1-9.2l-10.2-3.5c0,0-6.8-35.3,13.6-57.4c0,0,0.8,18.8,21.1,41.3
				C38.4,172.9,35.2,188.9,37.9,201.8z"/>
		</g>
		<g id="XMLID_15_">
			<path id="XMLID_42_" class="st0" d="M126.5,74.8c1.7-0.5,3.4-0.9,5.2-1.3c0.5-0.1,1.1-0.2,1.6-0.3c1.1-0.2,2.1-0.4,3.2-0.5
				c3.1-0.4,6.2-0.7,9.3-0.7c-19.2,0.2-37.4,7.9-50.8,21C103.8,84.4,114.6,78.2,126.5,74.8z"/>
			<path id="XMLID_38_" class="st0" d="M195.5,93.4c0.1,0.1,0.2,0.3,0.2,0.4c-0.8,0.1-1.8,0.6-2.5,0.4c-6.4-2-12.9-1.1-19.2,0.1
				c-6.7,1.3-12.3,4.9-17.1,9.9c-6.5,6.9-11.1,14.5-11.1,24.1c0,9.1,2.1,17.6,8,25c3.2,4.1,6.5,8.2,8.8,12.7
				c3.5,6.9,5.2,14.4,2.6,22.1c-1.6,4.9-2.8,10.1-5.1,14.7c-3.1,6.2-8.8,10-14.7,13.4c-6.8,3.9-14.2,5.9-21.8,4.6
				c-0.8-0.1-1.6-0.3-2.3-0.4c6.4,3.2,13.3,5.6,20.8,6.8c36.4,6.3,72.3-15.9,82.9-51.3C234.7,143.7,221.5,110.8,195.5,93.4z
				 M178.9,148.6c-10.5-2.1-16.8-12.7-13.7-23.4c3-10.7,12.6-16.3,23.5-13.6c10.9,2.7,16.4,12.3,13.9,23.2
				C200.1,144.8,189.6,151.8,178.9,148.6z"/>
			<path id="XMLID_37_" class="st1" d="M136,180.1c2-8.5-3-18.3-12.6-20.8c-8.3-2.1-19.3,2.8-21.9,12.9c-2.2,8.6,3.9,18.5,12.6,20.6
				C122.7,194.8,133.2,189.2,136,180.1z"/>
			<path id="XMLID_18_" class="st1" d="M137.4,210.9c5.9-3.4,11.6-7.2,14.7-13.4c2.3-4.6,3.4-9.8,5.1-14.7
				c2.6-7.8,0.9-15.2-2.6-22.1c-2.3-4.6-5.6-8.7-8.8-12.7c-5.8-7.4-8-15.9-8-25c0-9.6,4.6-17.3,11.1-24.1c4.8-5.1,10.5-8.6,17.1-9.9
				c6.3-1.3,12.7-2.1,19.2-0.1c0.7,0.2,1.6-0.2,2.5-0.4c-0.1-0.1-0.2-0.3-0.2-0.4c-7.1-4.7-15.1-8.3-23.9-10.4
				c-6-1.4-11.9-2.1-17.8-2c-3.2,0-6.3,0.3-9.3,0.7c-1.1,0.2-2.1,0.3-3.2,0.5c-0.5,0.1-1.1,0.2-1.6,0.3c-1.8,0.4-3.5,0.8-5.2,1.3
				c-11.9,3.4-22.7,9.7-31.5,18.1c-9.6,9.4-16.8,21.5-20.2,35.6c-7.9,33.2,7.9,66.4,36.6,81.9c1.3,0.7,2.7,1.2,4.2,1.4l0,0
				C123.2,216.8,130.6,214.8,137.4,210.9z M102.5,172.9c2.6-10.1,12.7-15,20.9-12.9c9.2,2.4,14.2,11.5,12.8,19.8
				c-0.1,0.7-0.3,1.4-0.6,2c-3.2,8.5-12.2,13.6-20.6,11.6C106.4,191.4,100.2,181.5,102.5,172.9z"/>
			<path id="XMLID_17_" class="st0" d="M188.6,110.8c-10.9-2.7-20.5,3-23.5,13.6c-3,10.7,3.2,22.3,13.7,24.4
				c10.7,3.3,21.2-3.7,23.6-13.8C205,124.1,199.5,113.5,188.6,110.8z"/>
		</g>
		<path id="XMLID_9_" class="st2" d="M174.8,131.7c-0.1-5,2.6-9.7,7.3-11.8c6.3-2.8,13.3,0.5,16.8,6.7c0,0,1,1.5,1.6,4.7
			c0.8,4.3,0.2,8.8-1.5,12.8l-4.6,10.3c-2.7,6-9.4,9-15.7,7l-10.6-3.4c-4.1-1.3-7.9-3.9-10.6-7.4c-2-2.6-2.4-4.3-2.4-4.3
			c-2.3-6.7-0.2-14.2,6.1-17C166.1,127.1,171.2,128.3,174.8,131.7L174.8,131.7z M174.8,131.7"/>
		<path id="XMLID_3_" class="st2" d="M126.2,191.2c1.1,3.6,0.2,7.7-2.9,10.3c-4,3.4-9.9,2.4-13.8-1.4c0,0-1.1-0.9-2.2-3.1
			c-1.5-3-2-6.4-1.6-9.7l1.3-9.7c0.6-4.3,4.4-7.5,8.8-7.4l9.6,0.3c3.3,0.1,6.6,1.2,9.3,3.2c2,1.5,2.7,2.7,2.7,2.7
			c3.1,4.4,3.2,10.4-0.9,13.8C133.6,192.7,129.6,192.9,126.2,191.2L126.2,191.2z M126.2,191.2"/>
	</g>
</g>
</svg>
